<svg xmlns="http://www.w3.org/2000/svg" xmlns:xlink="http://www.w3.org/1999/xlink" width="500" zoomAndPan="magnify" viewBox="0 0 375 374.999991" height="500" preserveAspectRatio="xMidYMid meet" version="1.0"><defs><g/><clipPath id="d404d8d25d"><path d="M 98.085938 53.914062 L 276 53.914062 L 276 246 L 98.085938 246 Z M 98.085938 53.914062 " clip-rule="nonzero"/></clipPath><clipPath id="1ccc937128"><path d="M 0.402344 41 L 171 41 L 171 117 L 0.402344 117 Z M 0.402344 41 " clip-rule="nonzero"/></clipPath><clipPath id="5d84bc8bc5"><rect x="0" width="178" y="0" height="193"/></clipPath><clipPath id="96f725b0c3"><rect x="0" width="204" y="0" height="56"/></clipPath></defs><rect x="-37.5" width="450" fill="#ffffff" y="-37.499999" height="449.999989" fill-opacity="1"/><rect x="-37.5" width="450" fill="#2a2e30" y="-37.499999" height="449.999989" fill-opacity="1"/><g clip-path="url(#d404d8d25d)"><g transform="matrix(1, 0, 0, 1, 98, 53)"><g clip-path="url(#5d84bc8bc5)"><path fill="#ffffff" d="M 85.183594 1.007812 C 125.742188 1.007812 159.078125 31.910156 162.945312 71.449219 L 163.324219 85.421875 L 177.242188 110.214844 C 178.910156 114.84375 176.714844 119.980469 172.210938 121.96875 L 164.394531 125.417969 C 161.746094 126.589844 160.035156 129.214844 160.035156 132.109375 L 160.035156 151.035156 C 160.035156 160.84375 152.011719 168.867188 142.203125 168.867188 L 125 164.261719 C 121.273438 164.261719 118.25 167.285156 118.25 171.011719 L 118.25 186.5 C 118.25 191.1875 113.214844 194.148438 109.117188 191.875 L 43.441406 160.515625 C 39.59375 158.378906 37.207031 154.324219 37.207031 149.921875 L 37.207031 140.835938 C 10.570312 124.160156 7.054688 94.070312 7.039062 79.242188 C 6.988281 36.160156 42.101562 1.007812 85.183594 1.007812 Z M 85.183594 136.71875 C 115.933594 136.71875 140.863281 111.789062 140.863281 81.039062 C 140.863281 50.289062 115.933594 25.359375 85.183594 25.359375 C 54.433594 25.359375 29.503906 50.289062 29.503906 81.039062 C 29.503906 111.789062 54.429688 136.71875 85.183594 136.71875 Z M 85.183594 136.71875 " fill-opacity="1" fill-rule="nonzero"/><path fill="#d4edf4" d="M 163.316406 85.175781 L 163.324219 85.421875 L 166.347656 90.804688 L 140.011719 90.804688 C 140.339844 88.960938 140.535156 87.078125 140.675781 85.179688 L 163.316406 85.179688 Z M 163.316406 85.175781 " fill-opacity="1" fill-rule="nonzero"/><path fill="#d4edf4" d="M 124.582031 120.386719 L 124.5625 120.40625 C 124.570312 120.398438 124.574219 120.394531 124.582031 120.386719 Z M 124.582031 120.386719 " fill-opacity="1" fill-rule="nonzero"/><path fill="#d4edf4" d="M 45.796875 41.644531 L 45.816406 41.660156 C 35.734375 51.738281 29.5 65.660156 29.5 81.039062 C 29.5 111.789062 54.429688 136.71875 85.179688 136.71875 C 100.554688 136.71875 114.472656 130.492188 124.546875 120.417969 L 71.199219 173.765625 L 43.4375 160.511719 C 39.589844 158.375 37.203125 154.320312 37.203125 149.921875 L 37.203125 140.832031 C 11.238281 124.582031 7.242188 95.582031 7.046875 80.394531 Z M 45.796875 41.644531 " fill-opacity="1" fill-rule="nonzero"/><g clip-path="url(#1ccc937128)"><path fill="#ff914d" d="M 94.796875 116.609375 C 97.292969 116.609375 99.457031 114.894531 100.027344 112.46875 L 109.117188 73.742188 L 113.601562 82.300781 C 114.527344 84.070312 116.363281 85.175781 118.359375 85.175781 L 165.417969 85.175781 C 168.382812 85.175781 170.789062 82.769531 170.789062 79.804688 C 170.789062 76.839844 168.382812 74.433594 165.417969 74.433594 L 121.605469 74.433594 L 111.9375 55.984375 C 110.898438 54 108.730469 52.871094 106.503906 53.148438 C 104.28125 53.429688 102.464844 55.0625 101.953125 57.25 L 94.800781 87.714844 L 84.878906 45.367188 C 84.324219 42.988281 82.230469 41.285156 79.785156 41.222656 C 77.363281 41.167969 75.167969 42.753906 74.488281 45.101562 L 63.152344 84.378906 L 58.410156 76.867188 C 57.425781 75.308594 55.714844 74.363281 53.871094 74.363281 L 5.457031 74.363281 C 2.492188 74.363281 0.0859375 76.769531 0.0859375 79.734375 C 0.0859375 82.703125 2.492188 85.105469 5.457031 85.105469 L 50.914062 85.105469 L 60.457031 100.226562 C 61.585938 102.019531 63.664062 102.976562 65.753906 102.679688 C 67.847656 102.382812 69.574219 100.882812 70.160156 98.851562 L 79.113281 67.828125 L 89.570312 112.460938 C 90.136719 114.894531 92.304688 116.609375 94.796875 116.609375 Z M 94.796875 116.609375 " fill-opacity="1" fill-rule="nonzero"/></g></g></g></g><g transform="matrix(1, 0, 0, 1, 84, 252)"><g clip-path="url(#96f725b0c3)"><g fill="#ffffff" fill-opacity="1"><g transform="translate(2.434252, 44.186653)"><g><path d="M 33.5 -3.484375 C 33.5 -2.535156 33.15625 -1.71875 32.46875 -1.03125 C 31.78125 -0.34375 30.96875 0 30.03125 0 C 29.082031 0 28.265625 -0.34375 27.578125 -1.03125 C 26.890625 -1.71875 26.546875 -2.535156 26.546875 -3.484375 L 26.546875 -10.4375 L 9.140625 -10.4375 L 9.140625 -3.484375 C 9.140625 -2.535156 8.796875 -1.71875 8.109375 -1.03125 C 7.421875 -0.34375 6.601562 0 5.65625 0 C 4.71875 0 3.898438 -0.34375 3.203125 -1.03125 C 2.515625 -1.71875 2.171875 -2.535156 2.171875 -3.484375 L 2.171875 -19.140625 C 2.171875 -21.316406 2.578125 -23.359375 3.390625 -25.265625 C 4.210938 -27.171875 5.328125 -28.828125 6.734375 -30.234375 C 8.148438 -31.648438 9.8125 -32.765625 11.71875 -33.578125 C 13.625 -34.398438 15.664062 -34.8125 17.84375 -34.8125 C 20.019531 -34.8125 22.054688 -34.398438 23.953125 -33.578125 C 25.859375 -32.765625 27.519531 -31.648438 28.9375 -30.234375 C 30.351562 -28.828125 31.46875 -27.171875 32.28125 -25.265625 C 33.09375 -23.359375 33.5 -21.316406 33.5 -19.140625 Z M 9.140625 -17.40625 L 26.546875 -17.40625 L 26.546875 -19.140625 C 26.546875 -20.335938 26.316406 -21.460938 25.859375 -22.515625 C 25.410156 -23.566406 24.785156 -24.488281 23.984375 -25.28125 C 23.191406 -26.082031 22.269531 -26.707031 21.21875 -27.15625 C 20.164062 -27.613281 19.039062 -27.84375 17.84375 -27.84375 C 16.644531 -27.84375 15.519531 -27.613281 14.46875 -27.15625 C 13.414062 -26.707031 12.488281 -26.082031 11.6875 -25.28125 C 10.894531 -24.488281 10.269531 -23.566406 9.8125 -22.515625 C 9.363281 -21.460938 9.140625 -20.335938 9.140625 -19.140625 Z M 9.140625 -17.40625 "/></g></g></g><g fill="#ffffff" fill-opacity="1"><g transform="translate(37.133972, 44.186653)"><g><path d="M 7.390625 -27.84375 L 3.921875 -27.84375 C 2.972656 -27.84375 2.15625 -28.1875 1.46875 -28.875 C 0.78125 -29.570312 0.4375 -30.390625 0.4375 -31.328125 C 0.4375 -32.273438 0.78125 -33.09375 1.46875 -33.78125 C 2.15625 -34.46875 2.972656 -34.8125 3.921875 -34.8125 L 17.84375 -34.8125 C 18.78125 -34.8125 19.59375 -34.46875 20.28125 -33.78125 C 20.976562 -33.09375 21.328125 -32.273438 21.328125 -31.328125 C 21.328125 -30.390625 20.976562 -29.570312 20.28125 -28.875 C 19.59375 -28.1875 18.78125 -27.84375 17.84375 -27.84375 L 14.359375 -27.84375 L 14.359375 -6.96875 L 17.84375 -6.96875 C 18.78125 -6.96875 19.59375 -6.617188 20.28125 -5.921875 C 20.976562 -5.234375 21.328125 -4.421875 21.328125 -3.484375 C 21.328125 -2.535156 20.976562 -1.71875 20.28125 -1.03125 C 19.59375 -0.34375 18.78125 0 17.84375 0 L 3.921875 0 C 2.972656 0 2.15625 -0.34375 1.46875 -1.03125 C 0.78125 -1.71875 0.4375 -2.535156 0.4375 -3.484375 C 0.4375 -4.421875 0.78125 -5.234375 1.46875 -5.921875 C 2.15625 -6.617188 2.972656 -6.96875 3.921875 -6.96875 L 7.390625 -6.96875 Z M 7.390625 -27.84375 "/></g></g></g><g fill="#ffffff" fill-opacity="1"><g transform="translate(57.910262, 44.186653)"><g><path d="M 4.78125 -13.921875 C 3.84375 -13.921875 3.03125 -14.265625 2.34375 -14.953125 C 1.65625 -15.640625 1.3125 -16.457031 1.3125 -17.40625 C 1.3125 -18.34375 1.65625 -19.15625 2.34375 -19.84375 C 3.03125 -20.539062 3.84375 -20.890625 4.78125 -20.890625 L 15.234375 -20.890625 C 16.171875 -20.890625 16.984375 -20.539062 17.671875 -19.84375 C 18.359375 -19.15625 18.703125 -18.34375 18.703125 -17.40625 C 18.703125 -16.457031 18.359375 -15.640625 17.671875 -14.953125 C 16.984375 -14.265625 16.171875 -13.921875 15.234375 -13.921875 Z M 4.78125 -13.921875 "/></g></g></g><g fill="#ffffff" fill-opacity="1"><g transform="translate(76.946138, 44.186653)"><g><path d="M 12.625 -27.84375 L 3.921875 -27.84375 C 2.972656 -27.84375 2.15625 -28.1875 1.46875 -28.875 C 0.78125 -29.570312 0.4375 -30.390625 0.4375 -31.328125 C 0.4375 -32.273438 0.78125 -33.09375 1.46875 -33.78125 C 2.15625 -34.46875 2.972656 -34.8125 3.921875 -34.8125 L 28.28125 -34.8125 C 29.226562 -34.8125 30.046875 -34.46875 30.734375 -33.78125 C 31.421875 -33.09375 31.765625 -32.273438 31.765625 -31.328125 C 31.765625 -30.390625 31.421875 -29.570312 30.734375 -28.875 C 30.046875 -28.1875 29.226562 -27.84375 28.28125 -27.84375 L 19.578125 -27.84375 L 19.578125 -3.484375 C 19.578125 -2.535156 19.234375 -1.71875 18.546875 -1.03125 C 17.859375 -0.34375 17.039062 0 16.09375 0 C 15.15625 0 14.34375 -0.34375 13.65625 -1.03125 C 12.96875 -1.71875 12.625 -2.535156 12.625 -3.484375 Z M 12.625 -27.84375 "/></g></g></g><g fill="#ffffff" fill-opacity="1"><g transform="translate(108.165, 44.186653)"><g><path d="M 9.140625 -6.96875 L 26.546875 -6.96875 C 27.484375 -6.96875 28.296875 -6.617188 28.984375 -5.921875 C 29.679688 -5.234375 30.03125 -4.421875 30.03125 -3.484375 C 30.03125 -2.535156 29.679688 -1.71875 28.984375 -1.03125 C 28.296875 -0.34375 27.484375 0 26.546875 0 L 5.65625 0 C 4.71875 0 3.898438 -0.34375 3.203125 -1.03125 C 2.515625 -1.71875 2.171875 -2.535156 2.171875 -3.484375 L 2.171875 -31.328125 C 2.171875 -32.273438 2.515625 -33.09375 3.203125 -33.78125 C 3.898438 -34.46875 4.71875 -34.8125 5.65625 -34.8125 L 26.546875 -34.8125 C 27.484375 -34.8125 28.296875 -34.46875 28.984375 -33.78125 C 29.679688 -33.09375 30.03125 -32.273438 30.03125 -31.328125 C 30.03125 -30.390625 29.679688 -29.570312 28.984375 -28.875 C 28.296875 -28.1875 27.484375 -27.84375 26.546875 -27.84375 L 9.140625 -27.84375 L 9.140625 -20.890625 L 23.0625 -20.890625 C 24 -20.890625 24.8125 -20.539062 25.5 -19.84375 C 26.195312 -19.15625 26.546875 -18.34375 26.546875 -17.40625 C 26.546875 -16.457031 26.195312 -15.640625 25.5 -14.953125 C 24.8125 -14.265625 24 -13.921875 23.0625 -13.921875 L 9.140625 -13.921875 Z M 9.140625 -6.96875 "/></g></g></g><g fill="#ffffff" fill-opacity="1"><g transform="translate(137.643449, 44.186653)"><g><path d="M 30.5625 -5.109375 C 28.820312 -3.367188 26.898438 -2.082031 24.796875 -1.25 C 22.691406 -0.414062 20.519531 0 18.28125 0 C 15.882812 0 13.625 -0.453125 11.5 -1.359375 C 9.382812 -2.265625 7.535156 -3.503906 5.953125 -5.078125 C 4.378906 -6.660156 3.140625 -8.507812 2.234375 -10.625 C 1.328125 -12.75 0.875 -15.007812 0.875 -17.40625 C 0.875 -19.800781 1.328125 -22.054688 2.234375 -24.171875 C 3.140625 -26.296875 4.378906 -28.144531 5.953125 -29.71875 C 7.535156 -31.300781 9.382812 -32.546875 11.5 -33.453125 C 13.625 -34.359375 15.882812 -34.8125 18.28125 -34.8125 C 20.519531 -34.8125 22.691406 -34.382812 24.796875 -33.53125 C 26.898438 -32.675781 28.820312 -31.398438 30.5625 -29.703125 C 31.25 -29.003906 31.59375 -28.1875 31.59375 -27.25 C 31.59375 -26.300781 31.25 -25.484375 30.5625 -24.796875 C 29.875 -24.109375 29.0625 -23.765625 28.125 -23.765625 C 27.144531 -23.765625 26.328125 -24.109375 25.671875 -24.796875 C 24.660156 -25.847656 23.507812 -26.617188 22.21875 -27.109375 C 20.925781 -27.597656 19.613281 -27.84375 18.28125 -27.84375 C 16.820312 -27.84375 15.457031 -27.570312 14.1875 -27.03125 C 12.925781 -26.488281 11.820312 -25.742188 10.875 -24.796875 C 9.9375 -23.859375 9.191406 -22.753906 8.640625 -21.484375 C 8.097656 -20.210938 7.828125 -18.851562 7.828125 -17.40625 C 7.828125 -15.957031 8.097656 -14.597656 8.640625 -13.328125 C 9.191406 -12.054688 9.9375 -10.945312 10.875 -10 C 11.820312 -9.0625 12.925781 -8.320312 14.1875 -7.78125 C 15.457031 -7.238281 16.820312 -6.96875 18.28125 -6.96875 C 19.613281 -6.96875 20.914062 -7.210938 22.1875 -7.703125 C 23.457031 -8.191406 24.617188 -8.960938 25.671875 -10.015625 C 26.359375 -10.703125 27.175781 -11.046875 28.125 -11.046875 C 29.0625 -11.046875 29.875 -10.695312 30.5625 -10 C 31.25 -9.3125 31.59375 -8.5 31.59375 -7.5625 C 31.59375 -6.613281 31.25 -5.796875 30.5625 -5.109375 Z M 30.5625 -5.109375 "/></g></g></g><g fill="#ffffff" fill-opacity="1"><g transform="translate(168.862311, 44.186653)"><g><path d="M 9.140625 -3.484375 C 9.140625 -2.535156 8.796875 -1.71875 8.109375 -1.03125 C 7.421875 -0.34375 6.601562 0 5.65625 0 C 4.71875 0 3.898438 -0.34375 3.203125 -1.03125 C 2.515625 -1.71875 2.171875 -2.535156 2.171875 -3.484375 L 2.171875 -31.328125 C 2.171875 -32.273438 2.515625 -33.09375 3.203125 -33.78125 C 3.898438 -34.46875 4.71875 -34.8125 5.65625 -34.8125 C 6.601562 -34.8125 7.421875 -34.46875 8.109375 -33.78125 C 8.796875 -33.09375 9.140625 -32.273438 9.140625 -31.328125 L 9.140625 -20.890625 L 26.546875 -20.890625 L 26.546875 -31.328125 C 26.546875 -32.273438 26.890625 -33.09375 27.578125 -33.78125 C 28.265625 -34.46875 29.082031 -34.8125 30.03125 -34.8125 C 30.96875 -34.8125 31.78125 -34.46875 32.46875 -33.78125 C 33.15625 -33.09375 33.5 -32.273438 33.5 -31.328125 L 33.5 -3.484375 C 33.5 -2.535156 33.15625 -1.71875 32.46875 -1.03125 C 31.78125 -0.34375 30.96875 0 30.03125 0 C 29.082031 0 28.265625 -0.34375 27.578125 -1.03125 C 26.890625 -1.71875 26.546875 -2.535156 26.546875 -3.484375 L 26.546875 -13.921875 L 9.140625 -13.921875 Z M 9.140625 -3.484375 "/></g></g></g></g></g></svg>